<?xml version="1.0" encoding="UTF-8" standalone="no"?>
<!-- Uploaded to: SVG Repo, www.svgrepo.com, Generator: SVG Repo Mixer Tools -->

<svg
   fill="#000000"
   width="800px"
   height="800px"
   viewBox="0 0 32 32"
   version="1.1"
   id="svg10667"
   sodipodi:docname="mogo.svg"
   inkscape:version="1.2.2 (732a01da63, 2022-12-09)"
   xmlns:inkscape="http://www.inkscape.org/namespaces/inkscape"
   xmlns:sodipodi="http://sodipodi.sourceforge.net/DTD/sodipodi-0.dtd"
   xmlns="http://www.w3.org/2000/svg"
   xmlns:svg="http://www.w3.org/2000/svg">
  <defs
     id="defs10671" />
  <sodipodi:namedview
     id="namedview10669"
     pagecolor="#ffffff"
     bordercolor="#000000"
     borderopacity="0.25"
     inkscape:showpageshadow="2"
     inkscape:pageopacity="0.0"
     inkscape:pagecheckerboard="0"
     inkscape:deskcolor="#d1d1d1"
     showgrid="false"
     inkscape:zoom="0.4925"
     inkscape:cx="-44.670051"
     inkscape:cy="394.92386"
     inkscape:window-width="1920"
     inkscape:window-height="986"
     inkscape:window-x="-11"
     inkscape:window-y="-11"
     inkscape:window-maximized="1"
     inkscape:current-layer="svg10667" />
  <path
     d="M22.906 12.693c-1.682-7.417-5.656-9.849-6.083-10.781-0.469-0.661-0.974-1.911-0.974-1.911-0.005 0.026-0.005 0.042-0.010 0.068v0.016c0 0.021-0.005 0.031-0.005 0.052v0.021h-0.005c0 0.010 0 0.021 0 0.031v0.036h-0.005c0 0.010 0 0.026-0.005 0.031v0.031c0 0.010 0 0.021-0.005 0.026v0.026c0 0.016 0 0.031-0.005 0.042v0.005c0 0.021-0.005 0.047-0.010 0.068v0.010c-0.005 0.005-0.005 0.010-0.005 0.016v0.021h-0.005v0.031h-0.005v0.021h-0.010v0.031h-0.005v0.026h-0.005v0.021h-0.005v0.021h-0.005v0.021h-0.005v0.021h-0.005v0.016h-0.005v0.021h-0.005c0 0 0 0.005 0 0.005v0.016h-0.005c-0.005 0-0.005 0.005-0.005 0.005v0.010c0 0-0.005 0.010-0.005 0.010 0 0.010-0.005 0.021-0.010 0.031-0.005 0.005-0.005 0.005-0.005 0.010v0.010h-0.005v0.010h-0.010v0.026h-0.010v0.016h-0.005v0.005h-0.005v0.010h-0.005v0.016h-0.005v0.010h-0.010v0.016h-0.005v0.010h-0.005v0.010h-0.005v0.016h-0.005v0.010h-0.005v0.005h-0.005v0.010h-0.010v0.016h-0.005v0.005h-0.005v0.010h-0.005v0.016h-0.005v0.005h-0.005v0.010h-0.005v0.005h-0.005v0.016h-0.010v0.005h-0.005v0.010h-0.005v0.005h-0.005v0.010h-0.005c0 0.005 0 0.005 0 0.005v0.005c-0.005 0-0.005 0.005-0.005 0.005v0.005h-0.005c-0.005 0.010-0.010 0.016-0.016 0.026 0 0-0.010 0.010-0.010 0.016-0.005 0-0.005 0.005-0.005 0.005v0.005h-0.005v0.005h-0.005c0 0 0 0 0 0.005v0.005h-0.010v0.005c0 0-0.005 0-0.005 0v0.005h-0.005c0 0 0 0.005 0 0.005v0.010h-0.005v0.005h-0.005v0.005h-0.005v0.010h-0.005v-0.010h-0.010v0.005h-0.005v0.010h-0.005v0.010h-0.005v0.005h-0.005v0.005h-0.005v0.005h-0.005v0.010h-0.010v0.005h-0.005v0.010h-0.005v0.005h-0.005v0.005h-0.005v0.016h-0.005v0.005h-0.005v0.005h-0.005v0.005h-0.005v0.005h-0.010v0.010h-0.005v0.005h-0.005v0.005h-0.005v0.010h-0.005v0.005h-0.010v0.005h-0.005v0.005h-0.005v0.010h-0.005v0.010h-0.005v0.005h-0.005v0.005h-0.010v0.005h-0.005v0.005h-0.005v0.010h-0.005v0.005h-0.005v0.010h-0.005v0.005h-0.005v0.005h-0.005v0.005h-0.005v0.005h-0.010v0.005c-0.005 0-0.005 0.005-0.005 0.005l-0.005 0.005c0 0-0.005 0.005-0.005 0.005v0.010h-0.005v0.005h-0.005v0.005h-0.005v0.005h-0.005l-0.010 0.010v0.005c-0.010 0.005-0.010 0.010-0.021 0.021 0 0-0.010 0.010-0.016 0.010-0.016 0.010-0.036 0.031-0.052 0.047-0.010 0.005-0.021 0.016-0.031 0.021-0.021 0.021-0.042 0.036-0.063 0.052-0.031 0.031-0.063 0.052-0.099 0.083h-0.005c-0.073 0.063-0.156 0.135-0.245 0.214h-0.005c-0.224 0.198-0.49 0.453-0.792 0.755l-0.026 0.026c-1.813 1.875-4.672 5.786-4.969 12.104-0.031 0.521-0.026 1.031 0.005 1.526v0.010c0.146 2.49 0.927 4.615 1.906 6.344 0.385 0.688 0.807 1.313 1.234 1.875 1.469 1.938 2.969 3.089 3.349 3.37 0.589 1.359 0.536 3.703 0.536 3.703l0.859 0.286c0 0-0.177-2.266 0.068-3.365 0.078-0.339 0.255-0.63 0.464-0.88 0.146-0.099 0.563-0.401 1.063-0.859 0.026-0.026 0.042-0.047 0.063-0.073 2.026-1.891 5.813-6.547 4.516-14.13z"
     id="path10665" />
  <path
     style="opacity:0.737805;fill:#155965;stroke:#155965;stroke-width:0"
     d="m 406.90438,794.69616 -8.32405,-2.95281 -1.18482,-24.80569 c -1.18158,-24.73776 -5.46727,-50.89667 -10.1527,-61.96968 -1.35918,-3.21214 -8.41032,-10.71358 -15.66921,-16.66989 C 294.44497,625.01003 240.11861,532.40227 226.26929,440.60424 217.31352,381.24233 225.52665,303.69001 247.87972,236.54822 272.26136,163.31323 309.90773,104.50453 366.00747,52.016755 389.68407,29.86456 395.93909,20.860504 395.93909,8.9303567 c 0,-3.5022639 3.67424,2.1390123 11.2509,17.2741363 9.57981,19.136614 14.48055,25.991213 32.99492,46.149523 38.38918,41.797844 51.33131,58.529434 72.27056,93.431394 31.55767,52.60095 58.33848,129.39069 64.12934,183.88076 12.24666,115.23698 -26.00333,226.49612 -105.77037,307.65817 -10.412,10.5941 -24.04313,23.27838 -30.29141,28.18729 -6.24827,4.90894 -13.36084,12.48445 -15.80571,16.8345 -6.17464,10.98632 -9.15446,36.34743 -8.06051,68.60291 0.50403,14.86127 0.38883,26.94836 -0.25599,26.8602 -0.64482,-0.0881 -4.91822,-1.48906 -9.49644,-3.11308 z"
     id="path10673"
     transform="scale(0.04)" />
  <path
     style="opacity:0.737805;fill:#155965;stroke:#0f414a;stroke-width:0;stroke-opacity:1"
     d="m 405.71415,793.6226 c -5.96182,-2.18199 -6.2325,-3.42029 -8.73726,-39.96977 -1.28899,-18.80885 -5.88459,-42.93425 -9.4722,-49.72589 -1.28838,-2.439 -7.45577,-9.00245 -13.70532,-14.58546 -39.58548,-35.36341 -63.29974,-61.94024 -86.05971,-96.44808 -26.04988,-39.49588 -48.69686,-92.81943 -57.20229,-134.68593 -18.64293,-91.76654 2.80118,-211.36576 54.20078,-302.29149 18.08286,-31.98853 41.17826,-61.478811 76.86154,-98.14373 25.65671,-26.362508 32.0787,-34.115366 33.63815,-40.609136 l 1.92742,-8.0260582 8.90839,17.0552612 c 10.04588,19.233037 17.87283,29.76588 41.6441,56.041185 34.93973,38.620248 53.95825,64.922638 73.11494,101.117138 31.74185,59.97281 52.04231,126.49842 55.78378,182.80599 6.36073,95.72704 -23.06638,189.48877 -82.63196,263.28499 -6.76051,8.37564 -25.45125,28.02031 -41.53499,43.65483 -22.04788,21.43208 -29.91338,30.42477 -31.96711,36.54822 -1.72771,5.15137 -3.07973,22.4171 -3.69671,47.20812 -1.02962,41.37143 -0.77838,40.53704 -11.07155,36.76981 z"
     id="path10675"
     transform="scale(0.04)" />
  <path
     style="opacity:0.737805;fill:#155965;stroke:#0f414a;stroke-width:0;stroke-opacity:1"
     d="m 403.40849,790.93567 c -1.85548,-1.85547 -3.47784,-9.29673 -4.31619,-19.79695 -1.77122,-22.18453 -4.45805,-42.70128 -7.36696,-56.2546 -2.26386,-10.54782 -3.62469,-12.23198 -32.8129,-40.60914 -16.74811,-16.28272 -36.14769,-36.45772 -43.11019,-44.83336 -40.33273,-48.5188 -70.96578,-110.76645 -84.93365,-172.58883 -3.80839,-16.85604 -4.36146,-25.56469 -4.38435,-69.03553 -0.0227,-43.11834 0.59716,-53.21787 4.65239,-75.80329 9.12164,-50.8025 23.79592,-95.75263 45.06918,-138.05558 19.97658,-39.72444 41.65469,-68.77792 88.7208,-118.905529 18.85966,-20.086424 29.46579,-33.002417 30.55637,-37.211109 l 1.67036,-6.446155 10.05277,17.920517 c 9.45867,16.861466 15.51722,24.601013 58.90789,75.252416 63.38388,73.99016 106.2734,180.16319 109.95998,272.20589 2.96755,74.09116 -15.6199,146.9589 -53.83385,211.04284 -14.56924,24.43228 -30.13707,43.34991 -63.60101,77.28623 -21.99308,22.30354 -35.35461,37.49419 -37.50533,42.6396 -2.43674,5.82972 -3.79117,18.43397 -5.00447,46.57163 -0.91494,21.21827 -1.72037,38.80711 -1.78983,39.08629 -0.4477,1.79933 -8.47731,-0.0122 -10.93101,-2.46534 z"
     id="path12678"
     transform="scale(0.04)" />
  <path
     style="opacity:0.737805;fill:#0f414a;stroke:#0f414a;stroke-width:0;stroke-opacity:1;fill-opacity:1"
     d="m 403.28376,789.3401 c -1.59568,-2.51269 -3.50833,-12.33502 -4.25034,-21.82741 -2.0187,-25.82491 -6.82088,-54.3774 -10.26615,-61.03984 -1.67947,-3.24773 -17.96843,-20.76623 -36.19768,-38.93003 C 306.61371,621.752 286.29892,594.1225 262.91711,545.6094 c -15.1319,-31.396 -25.29691,-59.86414 -31.39605,-87.92784 -3.7728,-17.35955 -4.38655,-26.8 -4.47608,-68.84907 -0.0607,-28.49176 0.9195,-55.47736 2.36,-64.97462 7.46906,-49.24388 23.69997,-101.71643 44.59261,-144.16244 22.22971,-45.16245 38.19392,-67.03083 90.26398,-123.647024 18.3684,-19.972103 30.29709,-34.639549 31.29101,-38.475236 1.5973,-6.164173 1.65397,-6.111849 10.15391,9.375485 8.52413,15.531398 19.02019,29.16381 59.14216,76.814565 66.02057,78.40915 106.20558,177.52681 111.04729,273.90175 3.62534,72.16299 -16.99907,150.28049 -56.52989,214.11393 -14.13602,22.82652 -27.07972,38.34226 -63.68106,76.33513 -17.47431,18.13866 -33.08265,36.11744 -34.68518,39.95285 -2.32387,5.56177 -5.99315,50.9879 -6.72883,83.30368 -0.0971,4.2657 -7.90521,2.82274 -10.98722,-2.03046 z"
     id="path12680"
     transform="scale(0.04)" />
  <path
     style="opacity:0.737805;fill:#0f414a;fill-opacity:1;stroke:#0f414a;stroke-width:0;stroke-opacity:1"
     d="m 406.35906,790.34445 c -4.17297,-3.50607 -6.31385,-14.1209 -9.47323,-46.96983 -0.57871,-6.01708 -1.96796,-14.69728 -3.08723,-19.28934 -1.11926,-4.59208 -2.43553,-10.06197 -2.92504,-12.15531 -1.5129,-6.46965 -5.62582,-11.31174 -40.74682,-47.97058 -33.5213,-34.98912 -54.04343,-60.30248 -68.31471,-84.26396 -18.86628,-31.67647 -38.83137,-79.08083 -46.60614,-110.6599 -2.61197,-10.60913 -5.31059,-19.74619 -5.99693,-20.30457 -1.89101,-1.53843 -1.28686,-125.88832 0.61162,-125.88832 0.90833,0 1.6515,-1.94583 1.6515,-4.32404 0,-8.28658 10.56485,-51.69204 18.69239,-76.79732 22.12735,-68.34946 47.90271,-111.36317 103.88252,-173.358257 11.31476,-12.530586 24.22712,-27.32653 28.69413,-32.879874 4.467,-5.553343 9.26396,-11.305611 10.6599,-12.782817 1.39593,-1.477206 2.53807,-3.53427 2.53807,-4.571253 0,-4.041555 3.3144,-1.556838 6.9646,5.221175 2.10494,3.908629 4.74926,7.106599 5.87628,7.106599 1.12702,0 1.45959,0.589548 0.73902,1.310108 -1.95154,1.951542 16.17014,26.410696 34.4404,46.484805 3.51777,3.865083 5.98498,7.027422 5.48268,7.027422 -0.50227,0 5.36656,7.538071 13.04185,16.751272 31.24345,37.50366 58.35137,81.02372 74.76475,120.03011 5.23259,12.43521 10.07092,23.06633 10.75186,23.62471 0.68093,0.55837 1.35949,2.38579 1.5079,4.06091 0.14842,1.67513 3.57086,13.82177 7.60544,26.99253 10.92321,35.6586 15.71998,64.61344 16.71984,100.92625 0.4766,17.30965 1.13118,36.67227 1.45461,43.02807 0.32346,6.35579 -0.15167,11.09882 -1.05569,10.54008 -0.9041,-0.55876 -1.65105,2.00753 -1.6599,5.70288 -0.008,3.69535 -2.24112,17.41214 -4.96057,30.48175 -14.29478,68.70032 -44.86128,128.37914 -90.78627,177.25352 -20.04995,21.33758 -48.75145,53.2736 -53.95766,60.03837 -2.8496,3.7027 -8.65503,52.68758 -8.65503,73.02916 0,7.64483 -0.81853,14.40559 -1.81896,15.02388 -1.00042,0.61829 -3.71626,-0.46991 -6.03518,-2.41823 z"
     id="path14211"
     transform="scale(0.04)" />
  <path
     style="opacity:0.737805;fill:#0f414a;fill-opacity:1;stroke:#0f414a;stroke-width:0;stroke-opacity:1"
     d="m 404.26929,788.2066 c -2.20021,-4.11111 -5.59976,-25.28189 -7.16885,-44.64416 -0.56974,-7.03052 -1.59363,-13.6852 -2.27531,-14.78819 -0.68168,-1.10298 -1.63724,-5.21281 -2.12346,-9.13295 -1.33223,-10.7411 -7.80167,-19.46705 -37.62575,-50.74948 -36.40407,-38.18417 -55.61291,-61.37679 -69.84685,-84.33265 -20.70484,-33.39182 -39.63719,-77.46366 -51.05331,-118.84494 -5.42578,-19.66741 -5.5243,-21.07352 -5.45778,-77.89697 0.0723,-61.79314 1.18798,-72.23312 12.15085,-113.70559 21.14776,-80.00181 48.72404,-131.99707 102.30321,-192.893396 32.29218,-36.702237 49.64439,-57.174119 51.8172,-61.133183 1.96416,-3.57887 2.43107,-3.436788 7.43101,2.261243 2.93434,3.344034 4.73233,6.094053 3.99553,6.111154 -0.7368,0.0171 -0.40734,0.70238 0.73215,1.522843 1.13948,0.820462 3.21488,3.776014 4.61199,6.567892 2.91683,5.828741 10.19588,16.045257 18.78207,26.361592 16.65222,20.007714 38.68573,47.808895 51.76343,65.313515 82.35214,110.22895 112.18833,248.38469 78.85296,365.1267 -10.8115,37.86234 -28.04407,75.85704 -47.44559,104.60883 -12.10201,17.93442 -27.34863,36.16337 -59.61409,71.27509 -33.8473,36.8331 -33.1454,35.55837 -36.80474,66.84112 -1.69442,14.48511 -3.08076,32.96655 -3.08076,41.06984 0,13.29168 -0.39035,14.73326 -3.98948,14.73326 -2.19421,0 -4.8737,-1.6522 -5.95443,-3.67157 z"
     id="path14213"
     transform="scale(0.04)" />
  <path
     style="opacity:0.737805;fill:#0f414a;fill-opacity:1;stroke:#0f414a;stroke-width:0;stroke-opacity:1"
     d="m 404.35351,788.32487 c -2.27027,-4.28926 -6.08217,-27.13305 -7.50299,-44.96359 -0.56904,-7.14116 -1.55229,-13.82152 -2.185,-14.84526 -0.63271,-1.02376 -1.60639,-4.75476 -2.16373,-8.29113 -1.84372,-11.69864 -8.1824,-20.43506 -36.52365,-50.33955 -37.78857,-39.87291 -55.11141,-60.58349 -68.75771,-82.20428 -21.48779,-34.04459 -41.63904,-80.36516 -53.22128,-122.33684 -5.31374,-19.25592 -5.42198,-20.8453 -5.27969,-77.52696 0.15785,-62.88301 1.27334,-72.8198 13.2087,-117.66343 15.86798,-59.61929 38.9952,-109.44588 70.26,-151.3721 6.66217,-8.93401 26.06817,-32.179834 43.12442,-51.657383 C 372.36884,47.6468 388.7978,28.29558 391.82139,24.121636 l 5.49744,-7.588988 5.14575,5.864209 c 2.83017,3.225315 4.65171,6.358261 4.04786,6.962103 -0.60384,0.603841 -0.0319,1.097893 1.27098,1.097893 1.30287,0 2.36886,1.305293 2.36886,2.900652 0,1.59536 1.30355,4.204199 2.89677,5.797421 1.59323,1.593224 4.56277,5.611113 6.59899,8.928646 4.28517,6.981669 17.09592,22.789912 26.34181,32.505327 3.51776,3.696411 6.06883,6.720746 5.66905,6.720746 -0.39979,0 8.77148,12.332069 20.38057,27.404595 53.36524,69.28603 83.01501,134.81802 97.84181,216.25023 4.96568,27.27267 5.1122,99.27914 0.25409,124.87309 -7.05691,37.17783 -18.26867,70.62719 -35.08883,104.6848 -18.29095,37.03559 -31.12898,54.31256 -81.23943,109.32909 -14.51777,15.93913 -27.96775,31.45694 -29.88884,34.48402 -3.78805,5.96887 -9.70507,51.41367 -9.70507,74.5384 0,11.57303 -0.43909,13.0043 -3.98948,13.0043 -2.19421,0 -4.8358,-1.59898 -5.87021,-3.5533 z"
     id="path14215"
     transform="scale(0.04)" />
  <path
     style="opacity:0.737805;fill:#0f414a;fill-opacity:1;stroke:#0f414a;stroke-width:0;stroke-opacity:1"
     d="m 404.30784,788.27864 c -1.05953,-1.97974 -2.93172,-10.88837 -4.16043,-19.79696 -6.08049,-44.08572 -7.20332,-49.7471 -11.94521,-60.2282 -1.88684,-4.17054 -18.23627,-23.40016 -36.33206,-42.73247 -18.09578,-19.33232 -38.38394,-41.98322 -45.0848,-50.33535 -30.69662,-38.26107 -59.35468,-98.37526 -74.51358,-156.30241 -3.96613,-15.1559 -5.48486,-88.94798 -2.58391,-125.54715 3.7727,-47.59754 26.96726,-120.88305 53.76769,-169.88432 15.39263,-28.14353 31.35109,-49.77362 66.79827,-90.538363 16.75127,-19.264191 34.22415,-39.856312 38.82863,-45.760271 l 8.37179,-10.734472 5.18263,5.81662 c 2.85045,3.199142 4.64152,6.357732 3.98016,7.01909 -0.66136,0.661358 -0.13648,1.202469 1.1664,1.202469 1.30287,0 2.36886,0.821888 2.36886,1.826418 0,4.336881 21.93174,33.623994 37.05584,49.483492 3.07107,3.220392 5.58376,6.254208 5.58376,6.74181 0,0.487604 8.56046,12.067067 19.02327,25.732137 54.12834,70.69499 83.1495,134.5038 97.98057,215.42975 4.90674,26.7737 5.95374,87.39106 1.96877,113.98436 -6.34138,42.3186 -18.4733,80.6599 -37.63135,118.92873 -17.43267,34.82234 -32.29811,54.64831 -81.91793,109.25359 -15.39332,16.93992 -28.89281,33.1801 -29.99888,36.08926 -2.58642,6.8028 -7.95816,54.75088 -7.98359,71.26142 -0.0173,11.25433 -0.47098,12.69035 -4.00902,12.69035 -2.19421,0 -4.85636,-1.61979 -5.91588,-3.59953 z"
     id="path14217"
     transform="scale(0.04)" />
  <path
     style="opacity:0.737805;fill:#0f414a;fill-opacity:1;stroke:#0f414a;stroke-width:0;stroke-opacity:1"
     d="m 404.0128,787.72735 c -1.2218,-2.28294 -3.56822,-14.8464 -5.21426,-27.91878 -5.64619,-44.84047 -9.8054,-56.14595 -26.22314,-71.27929 -5.01799,-4.62542 -9.12362,-8.98672 -9.12362,-9.69174 0,-0.70503 -8.01186,-9.59484 -17.80413,-19.75514 -40.16433,-41.67383 -60.08056,-69.29363 -80.67093,-111.87428 -21.51387,-44.49043 -32.4552,-78.64101 -35.77901,-111.67513 -3.32644,-33.06026 -0.97951,-105.03378 4.264,-130.76412 9.55195,-46.87222 28.17318,-100.74314 47.09358,-136.24095 18.08719,-33.9346 34.16431,-55.59138 79.88845,-107.614214 11.28771,-12.84264 24.24334,-28.095957 28.7903,-33.89626 l 8.2672,-10.546005 5.32596,5.977478 c 2.92927,3.287612 4.82603,5.977477 4.21501,5.977477 -0.61102,0 -0.14366,1.142132 1.03858,2.538071 1.18223,1.395939 6.47206,8.591551 11.75518,15.990248 13.89611,19.460716 29.27834,38.324473 31.25126,38.324473 0.93756,0 1.70465,0.859618 1.70465,1.910262 0,1.050645 8.52162,13.15724 18.93695,26.90355 31.95568,42.17559 47.89775,68.20925 64.41838,105.19634 4.73866,10.60914 9.40004,19.5958 10.3586,19.97038 0.95856,0.37457 1.33322,1.34383 0.83255,2.15392 -0.50065,0.81008 2.60012,12.43432 6.89061,25.83162 14.42863,45.05413 20.39032,82.5213 20.39032,128.14631 0,48.1825 -8.2322,90.47659 -26.58575,136.58813 -19.67125,49.42213 -38.44373,76.94544 -94.91096,139.1539 -16.01101,17.63891 -29.99165,34.38723 -31.06809,37.21848 -2.39986,6.3121 -7.78974,55.83775 -7.81955,71.85097 -0.0191,10.24442 -0.51062,11.67512 -4.01122,11.67512 -2.19421,0 -4.98913,-1.86788 -6.21092,-4.15082 z"
     id="path14219"
     transform="scale(0.04)" />
  <path
     style="opacity:0.737805;fill:#0f414a;fill-opacity:1;stroke:#0f414a;stroke-width:0;stroke-opacity:1"
     d="m 404.0774,787.84806 c -1.18626,-2.21655 -3.53544,-14.32315 -5.2204,-26.90355 -3.55112,-26.51369 -8.23341,-49.07734 -11.44738,-55.16421 -1.23641,-2.3416 -7.94063,-10.19654 -14.89826,-17.45543 -60.91588,-63.55338 -84.14641,-93.31064 -104.36089,-133.68154 -11.01428,-21.99689 -25.18538,-56.86524 -29.63493,-72.91744 -1.93472,-6.9797 -4.08255,-12.69036 -4.77295,-12.69036 -0.69041,0 -1.35841,-2.05583 -1.48445,-4.56853 -0.12605,-2.51269 -1.38962,-14.16243 -2.80794,-25.88832 -1.76148,-14.5629 -2.21351,-35.8428 -1.42627,-67.14372 0.97064,-38.59317 2.00042,-49.93973 6.52607,-71.90731 7.54853,-36.64069 24.90247,-88.09563 40.31117,-119.52381 19.82941,-40.44483 34.82177,-61.36857 84.60198,-118.072829 11.76564,-13.402158 25.12998,-29.103839 29.69853,-34.892625 l 8.30646,-10.525066 4.95825,5.448924 c 2.72704,2.996908 8.07511,10.730482 11.8846,17.185721 3.80949,6.455239 14.25455,20.331501 23.21124,30.836141 43.43409,50.940664 78.96522,104.828784 99.78315,151.335694 4.24908,9.49238 8.21545,17.71573 8.81417,18.27411 0.59872,0.55837 1.13954,1.92893 1.20181,3.04568 0.26897,4.82311 3.51746,13.19797 5.11929,13.19797 0.96065,0 1.22069,1.37056 0.57789,3.04569 -0.64282,1.67513 -0.38571,3.04568 0.57133,3.04568 0.95705,0 1.82983,2.05584 1.93951,4.56853 0.10965,2.51269 3.07626,15.35482 6.59239,28.53807 9.96233,37.35237 13.11261,66.9358 11.82607,111.05584 -1.56216,53.57186 -10.41513,92.68737 -31.78102,140.41955 -19.19575,42.88404 -34.97435,65.08224 -86.73841,122.02827 -16.1662,17.78457 -30.71507,35.49953 -32.33083,39.36658 -3.07224,7.35291 -8.82518,54.94168 -8.86264,73.3125 -0.0189,9.23525 -0.55492,10.6599 -4.01122,10.6599 -2.19421,0 -4.96005,-1.81354 -6.14632,-4.03011 z"
     id="path14221"
     transform="scale(0.04)" />
  <path
     style="opacity:0.737805;fill:#0f414a;fill-opacity:1;stroke:#0f414a;stroke-width:0;stroke-opacity:1"
     d="m 404.10952,787.90808 c -1.1686,-2.18355 -3.93778,-16.11756 -6.15374,-30.96447 -4.9453,-33.13348 -7.43672,-45.27927 -10.46312,-51.00816 -1.28208,-2.42692 -8.0003,-10.35169 -14.92938,-17.61058 -64.5924,-67.66682 -81.74877,-89.57856 -103.6268,-132.3498 -11.95216,-23.36632 -27.54934,-61.67978 -31.46628,-77.29487 -1.33061,-5.30457 -2.99611,-9.64467 -3.70109,-9.64467 -0.70499,0 -1.3991,-2.05583 -1.54247,-4.56853 -0.14336,-2.51269 -1.24696,-10.96446 -2.45244,-18.78172 -1.32508,-8.59285 -1.88467,-35.49023 -1.41513,-68.02031 0.69914,-48.43612 1.30597,-56.31864 6.07934,-78.968 7.52645,-35.71265 25.24331,-87.72957 40.46419,-118.8034 20.02578,-40.88316 34.98065,-61.7365 85.2436,-118.865247 13.31974,-15.139182 26.99549,-31.405444 30.39054,-36.147249 l 6.17283,-8.621464 4.70351,4.418722 c 2.58693,2.430297 7.34843,9.051072 10.58111,14.712835 3.23268,5.661761 12.3464,18.06061 20.25269,27.552995 29.60926,35.549142 58.28461,74.461338 76.31099,103.553298 9.23023,14.89625 37.20331,69.29649 38.63092,75.12691 0.13665,0.55837 0.95488,3.98477 1.81813,7.61421 0.86325,3.62944 2.38197,6.59898 3.37495,6.59898 0.99297,0 1.27947,1.37056 0.63667,3.04569 -0.64282,1.67513 -0.10335,3.04568 1.19878,3.04568 1.30213,0 1.88378,0.78272 1.29253,1.73937 -0.59123,0.95665 0.74593,8.03787 2.97151,15.73605 10.12079,35.00749 14.28059,61.9535 15.5121,100.48284 2.14081,66.97819 -7.93693,116.32676 -35.88176,175.70554 -17.51215,37.21078 -31.49875,56.37903 -81.8505,112.17375 -16.75484,18.56599 -31.73202,36.77482 -33.28264,40.46404 -2.83723,6.75031 -8.65059,56.05622 -8.72524,74.00298 -0.0342,8.21986 -0.62949,9.64467 -4.0296,9.64467 -2.19421,0 -4.9456,-1.78654 -6.1142,-3.97009 z"
     id="path14223"
     transform="scale(0.04)" />
</svg>
